<mxfile host="app.diagrams.net" agent="Mozilla/5.0 (Windows NT 10.0; Win64; x64) AppleWebKit/537.36 (KHTML, like Gecko) Chrome/135.0.0.0 Safari/537.36" version="26.2.12" pages="3">
  <diagram name="PÃ¡gina-1" id="U8C-AKAj-BaEkpmL3CiW">
    <mxGraphModel dx="1190" dy="648" grid="1" gridSize="10" guides="1" tooltips="1" connect="1" arrows="1" fold="1" page="1" pageScale="1" pageWidth="827" pageHeight="1169" math="0" shadow="0">
      <root>
        <mxCell id="0" />
        <mxCell id="1" parent="0" />
        <mxCell id="wTMSSNMJUDmzrDAlo_Wn-11" style="edgeStyle=orthogonalEdgeStyle;rounded=0;orthogonalLoop=1;jettySize=auto;html=1;exitX=1;exitY=0.5;exitDx=0;exitDy=0;entryX=0;entryY=0.5;entryDx=0;entryDy=0;" parent="1" source="wTMSSNMJUDmzrDAlo_Wn-1" target="wTMSSNMJUDmzrDAlo_Wn-4" edge="1">
          <mxGeometry relative="1" as="geometry" />
        </mxCell>
        <mxCell id="wTMSSNMJUDmzrDAlo_Wn-29" style="rounded=0;orthogonalLoop=1;jettySize=auto;html=1;exitX=0.5;exitY=1;exitDx=0;exitDy=0;entryX=0;entryY=0;entryDx=0;entryDy=0;" parent="1" source="wTMSSNMJUDmzrDAlo_Wn-1" target="wTMSSNMJUDmzrDAlo_Wn-2" edge="1">
          <mxGeometry relative="1" as="geometry" />
        </mxCell>
        <mxCell id="wTMSSNMJUDmzrDAlo_Wn-33" value="&lt;font style=&quot;font-size: 22px;&quot;&gt;4/7&lt;/font&gt;" style="edgeLabel;html=1;align=center;verticalAlign=middle;resizable=0;points=[];" parent="wTMSSNMJUDmzrDAlo_Wn-29" vertex="1" connectable="0">
          <mxGeometry x="-0.0663" y="-3" relative="1" as="geometry">
            <mxPoint x="-12" y="14" as="offset" />
          </mxGeometry>
        </mxCell>
        <mxCell id="wTMSSNMJUDmzrDAlo_Wn-30" style="rounded=0;orthogonalLoop=1;jettySize=auto;html=1;exitX=1;exitY=1;exitDx=0;exitDy=0;entryX=0;entryY=0;entryDx=0;entryDy=0;" parent="1" source="wTMSSNMJUDmzrDAlo_Wn-1" target="wTMSSNMJUDmzrDAlo_Wn-3" edge="1">
          <mxGeometry relative="1" as="geometry" />
        </mxCell>
        <mxCell id="wTMSSNMJUDmzrDAlo_Wn-32" value="&lt;font style=&quot;font-size: 22px;&quot;&gt;2/7&lt;/font&gt;" style="edgeLabel;html=1;align=center;verticalAlign=middle;resizable=0;points=[];" parent="wTMSSNMJUDmzrDAlo_Wn-30" vertex="1" connectable="0">
          <mxGeometry x="-0.2378" y="1" relative="1" as="geometry">
            <mxPoint x="39" y="-2" as="offset" />
          </mxGeometry>
        </mxCell>
        <mxCell id="wTMSSNMJUDmzrDAlo_Wn-1" value="&lt;font style=&quot;font-size: 14px;&quot;&gt;Act24&lt;/font&gt;" style="ellipse;whiteSpace=wrap;html=1;aspect=fixed;fillColor=#d5e8d4;strokeColor=#82b366;" parent="1" vertex="1">
          <mxGeometry x="90" y="180" width="80" height="80" as="geometry" />
        </mxCell>
        <mxCell id="wTMSSNMJUDmzrDAlo_Wn-9" style="edgeStyle=orthogonalEdgeStyle;rounded=0;orthogonalLoop=1;jettySize=auto;html=1;exitX=1;exitY=0.5;exitDx=0;exitDy=0;entryX=0;entryY=0.5;entryDx=0;entryDy=0;" parent="1" source="wTMSSNMJUDmzrDAlo_Wn-2" target="wTMSSNMJUDmzrDAlo_Wn-3" edge="1">
          <mxGeometry relative="1" as="geometry" />
        </mxCell>
        <mxCell id="wTMSSNMJUDmzrDAlo_Wn-34" value="&lt;font style=&quot;font-size: 22px;&quot;&gt;4/4&lt;/font&gt;" style="edgeLabel;html=1;align=center;verticalAlign=middle;resizable=0;points=[];" parent="wTMSSNMJUDmzrDAlo_Wn-9" vertex="1" connectable="0">
          <mxGeometry x="-0.0032" y="4" relative="1" as="geometry">
            <mxPoint y="24" as="offset" />
          </mxGeometry>
        </mxCell>
        <mxCell id="wTMSSNMJUDmzrDAlo_Wn-2" value="&lt;font style=&quot;font-size: 14px;&quot;&gt;Act18&lt;/font&gt;" style="ellipse;whiteSpace=wrap;html=1;aspect=fixed;" parent="1" vertex="1">
          <mxGeometry x="170" y="300" width="80" height="80" as="geometry" />
        </mxCell>
        <mxCell id="wTMSSNMJUDmzrDAlo_Wn-31" style="rounded=0;orthogonalLoop=1;jettySize=auto;html=1;exitX=1;exitY=0;exitDx=0;exitDy=0;entryX=0.5;entryY=1;entryDx=0;entryDy=0;" parent="1" source="wTMSSNMJUDmzrDAlo_Wn-3" target="wTMSSNMJUDmzrDAlo_Wn-4" edge="1">
          <mxGeometry relative="1" as="geometry" />
        </mxCell>
        <mxCell id="wTMSSNMJUDmzrDAlo_Wn-35" value="&lt;font style=&quot;font-size: 22px;&quot;&gt;6/6&lt;/font&gt;" style="edgeLabel;html=1;align=center;verticalAlign=middle;resizable=0;points=[];" parent="wTMSSNMJUDmzrDAlo_Wn-31" vertex="1" connectable="0">
          <mxGeometry x="-0.0479" y="-1" relative="1" as="geometry">
            <mxPoint x="16" y="12" as="offset" />
          </mxGeometry>
        </mxCell>
        <mxCell id="wTMSSNMJUDmzrDAlo_Wn-3" value="&lt;font style=&quot;font-size: 14px;&quot;&gt;Act16&lt;/font&gt;" style="ellipse;whiteSpace=wrap;html=1;aspect=fixed;" parent="1" vertex="1">
          <mxGeometry x="310" y="300" width="80" height="80" as="geometry" />
        </mxCell>
        <mxCell id="wTMSSNMJUDmzrDAlo_Wn-14" style="edgeStyle=orthogonalEdgeStyle;rounded=0;orthogonalLoop=1;jettySize=auto;html=1;exitX=1;exitY=0.5;exitDx=0;exitDy=0;entryX=0;entryY=0.5;entryDx=0;entryDy=0;" parent="1" source="wTMSSNMJUDmzrDAlo_Wn-4" target="wTMSSNMJUDmzrDAlo_Wn-12" edge="1">
          <mxGeometry relative="1" as="geometry" />
        </mxCell>
        <mxCell id="wTMSSNMJUDmzrDAlo_Wn-36" value="&lt;font style=&quot;font-size: 22px;&quot;&gt;7/7&lt;/font&gt;" style="edgeLabel;html=1;align=center;verticalAlign=middle;resizable=0;points=[];" parent="wTMSSNMJUDmzrDAlo_Wn-14" vertex="1" connectable="0">
          <mxGeometry x="-0.0667" relative="1" as="geometry">
            <mxPoint y="-20" as="offset" />
          </mxGeometry>
        </mxCell>
        <mxCell id="wTMSSNMJUDmzrDAlo_Wn-4" value="&lt;font style=&quot;font-size: 14px;&quot;&gt;Act02&lt;/font&gt;" style="ellipse;whiteSpace=wrap;html=1;aspect=fixed;" parent="1" vertex="1">
          <mxGeometry x="390" y="180" width="80" height="80" as="geometry" />
        </mxCell>
        <mxCell id="wTMSSNMJUDmzrDAlo_Wn-15" style="edgeStyle=orthogonalEdgeStyle;rounded=0;orthogonalLoop=1;jettySize=auto;html=1;exitX=1;exitY=0.5;exitDx=0;exitDy=0;entryX=0;entryY=0.5;entryDx=0;entryDy=0;" parent="1" source="wTMSSNMJUDmzrDAlo_Wn-12" target="wTMSSNMJUDmzrDAlo_Wn-13" edge="1">
          <mxGeometry relative="1" as="geometry" />
        </mxCell>
        <mxCell id="wTMSSNMJUDmzrDAlo_Wn-37" value="&lt;font style=&quot;font-size: 22px;&quot;&gt;7/7&lt;/font&gt;" style="edgeLabel;html=1;align=center;verticalAlign=middle;resizable=0;points=[];" parent="wTMSSNMJUDmzrDAlo_Wn-15" vertex="1" connectable="0">
          <mxGeometry x="-0.0667" y="2" relative="1" as="geometry">
            <mxPoint y="-18" as="offset" />
          </mxGeometry>
        </mxCell>
        <mxCell id="wTMSSNMJUDmzrDAlo_Wn-12" value="&lt;font style=&quot;font-size: 14px;&quot;&gt;Act05&lt;/font&gt;" style="ellipse;whiteSpace=wrap;html=1;aspect=fixed;" parent="1" vertex="1">
          <mxGeometry x="530" y="180" width="80" height="80" as="geometry" />
        </mxCell>
        <mxCell id="wTMSSNMJUDmzrDAlo_Wn-21" style="edgeStyle=orthogonalEdgeStyle;rounded=0;orthogonalLoop=1;jettySize=auto;html=1;entryX=0;entryY=0.5;entryDx=0;entryDy=0;" parent="1" source="wTMSSNMJUDmzrDAlo_Wn-13" target="wTMSSNMJUDmzrDAlo_Wn-16" edge="1">
          <mxGeometry relative="1" as="geometry" />
        </mxCell>
        <mxCell id="wTMSSNMJUDmzrDAlo_Wn-38" value="&lt;font style=&quot;font-size: 22px;&quot;&gt;6/7&lt;/font&gt;" style="edgeLabel;html=1;align=center;verticalAlign=middle;resizable=0;points=[];" parent="wTMSSNMJUDmzrDAlo_Wn-21" vertex="1" connectable="0">
          <mxGeometry x="0.0438" y="1" relative="1" as="geometry">
            <mxPoint y="21" as="offset" />
          </mxGeometry>
        </mxCell>
        <mxCell id="wTMSSNMJUDmzrDAlo_Wn-25" style="rounded=0;orthogonalLoop=1;jettySize=auto;html=1;exitX=0.5;exitY=0;exitDx=0;exitDy=0;entryX=0;entryY=1;entryDx=0;entryDy=0;" parent="1" source="wTMSSNMJUDmzrDAlo_Wn-13" target="wTMSSNMJUDmzrDAlo_Wn-18" edge="1">
          <mxGeometry relative="1" as="geometry" />
        </mxCell>
        <mxCell id="wTMSSNMJUDmzrDAlo_Wn-39" value="&lt;font style=&quot;font-size: 22px;&quot;&gt;1/7&lt;/font&gt;" style="edgeLabel;html=1;align=center;verticalAlign=middle;resizable=0;points=[];" parent="wTMSSNMJUDmzrDAlo_Wn-25" vertex="1" connectable="0">
          <mxGeometry x="-0.2215" relative="1" as="geometry">
            <mxPoint x="-16" y="-14" as="offset" />
          </mxGeometry>
        </mxCell>
        <mxCell id="wTMSSNMJUDmzrDAlo_Wn-13" value="&lt;font style=&quot;font-size: 14px;&quot;&gt;Act17&lt;/font&gt;" style="ellipse;whiteSpace=wrap;html=1;aspect=fixed;" parent="1" vertex="1">
          <mxGeometry x="670" y="180" width="80" height="80" as="geometry" />
        </mxCell>
        <mxCell id="wTMSSNMJUDmzrDAlo_Wn-22" style="edgeStyle=orthogonalEdgeStyle;rounded=0;orthogonalLoop=1;jettySize=auto;html=1;exitX=1;exitY=0.5;exitDx=0;exitDy=0;entryX=0;entryY=0.5;entryDx=0;entryDy=0;" parent="1" source="wTMSSNMJUDmzrDAlo_Wn-16" target="wTMSSNMJUDmzrDAlo_Wn-17" edge="1">
          <mxGeometry relative="1" as="geometry" />
        </mxCell>
        <mxCell id="wTMSSNMJUDmzrDAlo_Wn-43" value="&lt;font style=&quot;font-size: 22px;&quot;&gt;6/7&lt;/font&gt;" style="edgeLabel;html=1;align=center;verticalAlign=middle;resizable=0;points=[];" parent="wTMSSNMJUDmzrDAlo_Wn-22" vertex="1" connectable="0">
          <mxGeometry x="-0.0508" y="-1" relative="1" as="geometry">
            <mxPoint x="1" y="19" as="offset" />
          </mxGeometry>
        </mxCell>
        <mxCell id="wTMSSNMJUDmzrDAlo_Wn-23" style="rounded=0;orthogonalLoop=1;jettySize=auto;html=1;exitX=1;exitY=0;exitDx=0;exitDy=0;entryX=0.5;entryY=1;entryDx=0;entryDy=0;" parent="1" source="wTMSSNMJUDmzrDAlo_Wn-16" target="wTMSSNMJUDmzrDAlo_Wn-19" edge="1">
          <mxGeometry relative="1" as="geometry" />
        </mxCell>
        <mxCell id="wTMSSNMJUDmzrDAlo_Wn-41" value="&lt;font style=&quot;font-size: 22px;&quot;&gt;1/7&lt;/font&gt;" style="edgeLabel;html=1;align=center;verticalAlign=middle;resizable=0;points=[];" parent="wTMSSNMJUDmzrDAlo_Wn-23" vertex="1" connectable="0">
          <mxGeometry x="-0.105" y="-2" relative="1" as="geometry">
            <mxPoint x="22" y="5" as="offset" />
          </mxGeometry>
        </mxCell>
        <mxCell id="wTMSSNMJUDmzrDAlo_Wn-16" value="&lt;font style=&quot;font-size: 14px;&quot;&gt;Act22&lt;/font&gt;" style="ellipse;whiteSpace=wrap;html=1;aspect=fixed;" parent="1" vertex="1">
          <mxGeometry x="800" y="180" width="80" height="80" as="geometry" />
        </mxCell>
        <mxCell id="wTMSSNMJUDmzrDAlo_Wn-17" value="&lt;font style=&quot;font-size: 14px;&quot;&gt;Act13&lt;/font&gt;" style="ellipse;whiteSpace=wrap;html=1;aspect=fixed;fillColor=#fff2cc;strokeColor=#d6b656;" parent="1" vertex="1">
          <mxGeometry x="940" y="180" width="80" height="80" as="geometry" />
        </mxCell>
        <mxCell id="wTMSSNMJUDmzrDAlo_Wn-26" style="rounded=0;orthogonalLoop=1;jettySize=auto;html=1;exitX=0.5;exitY=1;exitDx=0;exitDy=0;entryX=0;entryY=0;entryDx=0;entryDy=0;" parent="1" source="wTMSSNMJUDmzrDAlo_Wn-18" target="wTMSSNMJUDmzrDAlo_Wn-16" edge="1">
          <mxGeometry relative="1" as="geometry" />
        </mxCell>
        <mxCell id="wTMSSNMJUDmzrDAlo_Wn-40" value="&lt;font style=&quot;font-size: 22px;&quot;&gt;1/1&lt;/font&gt;" style="edgeLabel;html=1;align=center;verticalAlign=middle;resizable=0;points=[];" parent="wTMSSNMJUDmzrDAlo_Wn-26" vertex="1" connectable="0">
          <mxGeometry x="0.1264" y="1" relative="1" as="geometry">
            <mxPoint x="21" y="-13" as="offset" />
          </mxGeometry>
        </mxCell>
        <mxCell id="wTMSSNMJUDmzrDAlo_Wn-18" value="&lt;font style=&quot;font-size: 14px;&quot;&gt;Act21&lt;/font&gt;" style="ellipse;whiteSpace=wrap;html=1;aspect=fixed;fillColor=#fff2cc;strokeColor=#d6b656;" parent="1" vertex="1">
          <mxGeometry x="740" y="70" width="80" height="80" as="geometry" />
        </mxCell>
        <mxCell id="wTMSSNMJUDmzrDAlo_Wn-24" style="edgeStyle=orthogonalEdgeStyle;rounded=0;orthogonalLoop=1;jettySize=auto;html=1;exitX=0;exitY=0.5;exitDx=0;exitDy=0;entryX=1;entryY=0.5;entryDx=0;entryDy=0;" parent="1" source="wTMSSNMJUDmzrDAlo_Wn-19" target="wTMSSNMJUDmzrDAlo_Wn-18" edge="1">
          <mxGeometry relative="1" as="geometry" />
        </mxCell>
        <mxCell id="wTMSSNMJUDmzrDAlo_Wn-42" value="&lt;font style=&quot;font-size: 22px;&quot;&gt;1/1&lt;/font&gt;" style="edgeLabel;html=1;align=center;verticalAlign=middle;resizable=0;points=[];" parent="wTMSSNMJUDmzrDAlo_Wn-24" vertex="1" connectable="0">
          <mxGeometry x="-0.0248" y="1" relative="1" as="geometry">
            <mxPoint y="-21" as="offset" />
          </mxGeometry>
        </mxCell>
        <mxCell id="wTMSSNMJUDmzrDAlo_Wn-19" value="&lt;font style=&quot;font-size: 14px;&quot;&gt;Act20&lt;/font&gt;" style="ellipse;whiteSpace=wrap;html=1;aspect=fixed;" parent="1" vertex="1">
          <mxGeometry x="870" y="70" width="80" height="80" as="geometry" />
        </mxCell>
        <mxCell id="wTMSSNMJUDmzrDAlo_Wn-27" value="&lt;font style=&quot;font-size: 22px;&quot;&gt;1/7&lt;/font&gt;" style="text;html=1;align=center;verticalAlign=middle;resizable=0;points=[];autosize=1;strokeColor=none;fillColor=none;" parent="1" vertex="1">
          <mxGeometry x="260" y="180" width="50" height="40" as="geometry" />
        </mxCell>
      </root>
    </mxGraphModel>
  </diagram>
  <diagram id="PX__-GVYyEmHCU9mUv4G" name="PÃ¡gina-2">
    <mxGraphModel dx="2040" dy="1110" grid="1" gridSize="10" guides="1" tooltips="1" connect="1" arrows="1" fold="1" page="1" pageScale="1" pageWidth="827" pageHeight="1169" math="0" shadow="0">
      <root>
        <mxCell id="0" />
        <mxCell id="1" parent="0" />
        <mxCell id="wVEgCq-2I5lU8e0PsuyC-1" style="edgeStyle=orthogonalEdgeStyle;rounded=0;orthogonalLoop=1;jettySize=auto;html=1;exitX=1;exitY=0.5;exitDx=0;exitDy=0;entryX=0;entryY=0.5;entryDx=0;entryDy=0;" parent="1" source="wVEgCq-2I5lU8e0PsuyC-3" target="wVEgCq-2I5lU8e0PsuyC-11" edge="1">
          <mxGeometry relative="1" as="geometry" />
        </mxCell>
        <mxCell id="wVEgCq-2I5lU8e0PsuyC-2" value="&lt;font style=&quot;font-size: 22px;&quot;&gt;6/6&lt;/font&gt;" style="edgeLabel;html=1;align=center;verticalAlign=middle;resizable=0;points=[];" parent="wVEgCq-2I5lU8e0PsuyC-1" vertex="1" connectable="0">
          <mxGeometry x="-0.0921" relative="1" as="geometry">
            <mxPoint y="20" as="offset" />
          </mxGeometry>
        </mxCell>
        <mxCell id="wVEgCq-2I5lU8e0PsuyC-3" value="&lt;font style=&quot;font-size: 14px;&quot;&gt;Act10&lt;/font&gt;" style="ellipse;whiteSpace=wrap;html=1;aspect=fixed;fillColor=#d5e8d4;strokeColor=#82b366;" parent="1" vertex="1">
          <mxGeometry x="80" y="340" width="80" height="80" as="geometry" />
        </mxCell>
        <mxCell id="wVEgCq-2I5lU8e0PsuyC-4" style="rounded=0;orthogonalLoop=1;jettySize=auto;html=1;exitX=1;exitY=1;exitDx=0;exitDy=0;entryX=0;entryY=0;entryDx=0;entryDy=0;" parent="1" source="wVEgCq-2I5lU8e0PsuyC-6" target="wVEgCq-2I5lU8e0PsuyC-32" edge="1">
          <mxGeometry relative="1" as="geometry" />
        </mxCell>
        <mxCell id="wVEgCq-2I5lU8e0PsuyC-5" value="&lt;font style=&quot;font-size: 22px;&quot;&gt;1/1&lt;/font&gt;" style="edgeLabel;html=1;align=center;verticalAlign=middle;resizable=0;points=[];" parent="wVEgCq-2I5lU8e0PsuyC-4" vertex="1" connectable="0">
          <mxGeometry x="-0.1396" y="-2" relative="1" as="geometry">
            <mxPoint x="-20" y="11" as="offset" />
          </mxGeometry>
        </mxCell>
        <mxCell id="wVEgCq-2I5lU8e0PsuyC-6" value="&lt;font style=&quot;font-size: 14px;&quot;&gt;Act22&lt;/font&gt;" style="ellipse;whiteSpace=wrap;html=1;aspect=fixed;fillColor=#d5e8d4;strokeColor=#82b366;" parent="1" vertex="1">
          <mxGeometry x="364" y="190" width="80" height="80" as="geometry" />
        </mxCell>
        <mxCell id="wVEgCq-2I5lU8e0PsuyC-9" style="edgeStyle=orthogonalEdgeStyle;rounded=0;orthogonalLoop=1;jettySize=auto;html=1;exitX=1;exitY=0.5;exitDx=0;exitDy=0;entryX=0;entryY=0.5;entryDx=0;entryDy=0;" parent="1" source="wVEgCq-2I5lU8e0PsuyC-11" target="wVEgCq-2I5lU8e0PsuyC-16" edge="1">
          <mxGeometry relative="1" as="geometry" />
        </mxCell>
        <mxCell id="wVEgCq-2I5lU8e0PsuyC-10" value="&lt;font style=&quot;font-size: 22px;&quot;&gt;6/6&lt;/font&gt;" style="edgeLabel;html=1;align=center;verticalAlign=middle;resizable=0;points=[];" parent="wVEgCq-2I5lU8e0PsuyC-9" vertex="1" connectable="0">
          <mxGeometry x="0.0079" y="3" relative="1" as="geometry">
            <mxPoint y="23" as="offset" />
          </mxGeometry>
        </mxCell>
        <mxCell id="wVEgCq-2I5lU8e0PsuyC-11" value="&lt;font style=&quot;font-size: 14px;&quot;&gt;Act03&lt;/font&gt;" style="ellipse;whiteSpace=wrap;html=1;aspect=fixed;" parent="1" vertex="1">
          <mxGeometry x="220" y="340" width="80" height="80" as="geometry" />
        </mxCell>
        <mxCell id="wVEgCq-2I5lU8e0PsuyC-12" style="rounded=0;orthogonalLoop=1;jettySize=auto;html=1;exitX=1;exitY=1;exitDx=0;exitDy=0;entryX=0;entryY=0;entryDx=0;entryDy=0;" parent="1" source="wVEgCq-2I5lU8e0PsuyC-16" target="wVEgCq-2I5lU8e0PsuyC-19" edge="1">
          <mxGeometry relative="1" as="geometry" />
        </mxCell>
        <mxCell id="wVEgCq-2I5lU8e0PsuyC-13" value="&lt;font style=&quot;font-size: 22px;&quot;&gt;1/6&lt;/font&gt;" style="edgeLabel;html=1;align=center;verticalAlign=middle;resizable=0;points=[];" parent="wVEgCq-2I5lU8e0PsuyC-12" vertex="1" connectable="0">
          <mxGeometry x="-0.178" y="-1" relative="1" as="geometry">
            <mxPoint x="-21" y="9" as="offset" />
          </mxGeometry>
        </mxCell>
        <mxCell id="wVEgCq-2I5lU8e0PsuyC-14" style="rounded=0;orthogonalLoop=1;jettySize=auto;html=1;exitX=1;exitY=0.5;exitDx=0;exitDy=0;entryX=0;entryY=1;entryDx=0;entryDy=0;" parent="1" source="wVEgCq-2I5lU8e0PsuyC-16" target="wVEgCq-2I5lU8e0PsuyC-32" edge="1">
          <mxGeometry relative="1" as="geometry" />
        </mxCell>
        <mxCell id="wVEgCq-2I5lU8e0PsuyC-15" value="&lt;font style=&quot;font-size: 22px;&quot;&gt;5/6&lt;/font&gt;" style="edgeLabel;html=1;align=center;verticalAlign=middle;resizable=0;points=[];" parent="wVEgCq-2I5lU8e0PsuyC-14" vertex="1" connectable="0">
          <mxGeometry x="-0.1102" y="-1" relative="1" as="geometry">
            <mxPoint x="12" y="19" as="offset" />
          </mxGeometry>
        </mxCell>
        <mxCell id="wVEgCq-2I5lU8e0PsuyC-16" value="&lt;font style=&quot;font-size: 14px;&quot;&gt;Act06&lt;/font&gt;" style="ellipse;whiteSpace=wrap;html=1;aspect=fixed;" parent="1" vertex="1">
          <mxGeometry x="363.5" y="340" width="80" height="80" as="geometry" />
        </mxCell>
        <mxCell id="wVEgCq-2I5lU8e0PsuyC-17" style="edgeStyle=orthogonalEdgeStyle;rounded=0;orthogonalLoop=1;jettySize=auto;html=1;exitX=1;exitY=0.5;exitDx=0;exitDy=0;entryX=0;entryY=0.5;entryDx=0;entryDy=0;" parent="1" source="wVEgCq-2I5lU8e0PsuyC-19" target="wVEgCq-2I5lU8e0PsuyC-22" edge="1">
          <mxGeometry relative="1" as="geometry" />
        </mxCell>
        <mxCell id="wVEgCq-2I5lU8e0PsuyC-18" value="&lt;font style=&quot;font-size: 22px;&quot;&gt;1/1&lt;/font&gt;" style="edgeLabel;html=1;align=center;verticalAlign=middle;resizable=0;points=[];" parent="wVEgCq-2I5lU8e0PsuyC-17" vertex="1" connectable="0">
          <mxGeometry x="-0.0361" y="-1" relative="1" as="geometry">
            <mxPoint x="4" y="19" as="offset" />
          </mxGeometry>
        </mxCell>
        <mxCell id="wVEgCq-2I5lU8e0PsuyC-19" value="&lt;font style=&quot;font-size: 14px;&quot;&gt;Act01&lt;/font&gt;" style="ellipse;whiteSpace=wrap;html=1;aspect=fixed;" parent="1" vertex="1">
          <mxGeometry x="444" y="450" width="80" height="80" as="geometry" />
        </mxCell>
        <mxCell id="wVEgCq-2I5lU8e0PsuyC-20" style="edgeStyle=orthogonalEdgeStyle;rounded=0;orthogonalLoop=1;jettySize=auto;html=1;exitX=1;exitY=0.5;exitDx=0;exitDy=0;entryX=0;entryY=0.5;entryDx=0;entryDy=0;" parent="1" source="wVEgCq-2I5lU8e0PsuyC-22" target="wVEgCq-2I5lU8e0PsuyC-25" edge="1">
          <mxGeometry relative="1" as="geometry" />
        </mxCell>
        <mxCell id="wVEgCq-2I5lU8e0PsuyC-21" value="&lt;font style=&quot;font-size: 22px;&quot;&gt;1/1&lt;/font&gt;" style="edgeLabel;html=1;align=center;verticalAlign=middle;resizable=0;points=[];" parent="wVEgCq-2I5lU8e0PsuyC-20" vertex="1" connectable="0">
          <mxGeometry x="-0.0762" relative="1" as="geometry">
            <mxPoint x="2" y="20" as="offset" />
          </mxGeometry>
        </mxCell>
        <mxCell id="wVEgCq-2I5lU8e0PsuyC-22" value="&lt;font style=&quot;font-size: 14px;&quot;&gt;Act19&lt;/font&gt;" style="ellipse;whiteSpace=wrap;html=1;aspect=fixed;" parent="1" vertex="1">
          <mxGeometry x="590" y="450" width="80" height="80" as="geometry" />
        </mxCell>
        <mxCell id="wVEgCq-2I5lU8e0PsuyC-23" style="rounded=0;orthogonalLoop=1;jettySize=auto;html=1;exitX=0;exitY=0;exitDx=0;exitDy=0;entryX=1;entryY=1;entryDx=0;entryDy=0;" parent="1" source="wVEgCq-2I5lU8e0PsuyC-25" target="wVEgCq-2I5lU8e0PsuyC-32" edge="1">
          <mxGeometry relative="1" as="geometry" />
        </mxCell>
        <mxCell id="wVEgCq-2I5lU8e0PsuyC-24" value="&lt;font style=&quot;font-size: 22px;&quot;&gt;1/5&lt;/font&gt;" style="edgeLabel;html=1;align=center;verticalAlign=middle;resizable=0;points=[];" parent="wVEgCq-2I5lU8e0PsuyC-23" vertex="1" connectable="0">
          <mxGeometry x="0.0515" y="2" relative="1" as="geometry">
            <mxPoint x="-15" y="11" as="offset" />
          </mxGeometry>
        </mxCell>
        <mxCell id="wVEgCq-2I5lU8e0PsuyC-25" value="&lt;font style=&quot;font-size: 14px;&quot;&gt;Act15&lt;/font&gt;" style="ellipse;whiteSpace=wrap;html=1;aspect=fixed;fillColor=#fff2cc;strokeColor=#d6b656;" parent="1" vertex="1">
          <mxGeometry x="730" y="450" width="80" height="80" as="geometry" />
        </mxCell>
        <mxCell id="wVEgCq-2I5lU8e0PsuyC-26" style="edgeStyle=orthogonalEdgeStyle;rounded=0;orthogonalLoop=1;jettySize=auto;html=1;exitX=0.5;exitY=0;exitDx=0;exitDy=0;entryX=0.5;entryY=1;entryDx=0;entryDy=0;" parent="1" source="wVEgCq-2I5lU8e0PsuyC-32" target="wVEgCq-2I5lU8e0PsuyC-35" edge="1">
          <mxGeometry relative="1" as="geometry" />
        </mxCell>
        <mxCell id="wVEgCq-2I5lU8e0PsuyC-27" value="&lt;font style=&quot;font-size: 22px;&quot;&gt;1/7&lt;/font&gt;" style="edgeLabel;html=1;align=center;verticalAlign=middle;resizable=0;points=[];" parent="wVEgCq-2I5lU8e0PsuyC-26" vertex="1" connectable="0">
          <mxGeometry x="-0.0879" y="1" relative="1" as="geometry">
            <mxPoint x="-19" y="-1" as="offset" />
          </mxGeometry>
        </mxCell>
        <mxCell id="wVEgCq-2I5lU8e0PsuyC-28" style="edgeStyle=orthogonalEdgeStyle;rounded=0;orthogonalLoop=1;jettySize=auto;html=1;exitX=1;exitY=0.5;exitDx=0;exitDy=0;entryX=0;entryY=0.5;entryDx=0;entryDy=0;" parent="1" source="wVEgCq-2I5lU8e0PsuyC-32" target="wVEgCq-2I5lU8e0PsuyC-40" edge="1">
          <mxGeometry relative="1" as="geometry" />
        </mxCell>
        <mxCell id="wVEgCq-2I5lU8e0PsuyC-29" value="&lt;font style=&quot;font-size: 22px;&quot;&gt;5/7&lt;/font&gt;" style="edgeLabel;html=1;align=center;verticalAlign=middle;resizable=0;points=[];" parent="wVEgCq-2I5lU8e0PsuyC-28" vertex="1" connectable="0">
          <mxGeometry x="-0.0449" y="3" relative="1" as="geometry">
            <mxPoint y="-17" as="offset" />
          </mxGeometry>
        </mxCell>
        <mxCell id="wVEgCq-2I5lU8e0PsuyC-30" style="edgeStyle=orthogonalEdgeStyle;rounded=0;orthogonalLoop=1;jettySize=auto;html=1;exitX=1;exitY=0;exitDx=0;exitDy=0;entryX=0;entryY=1;entryDx=0;entryDy=0;elbow=vertical;curved=1;" parent="1" source="wVEgCq-2I5lU8e0PsuyC-32" target="wVEgCq-2I5lU8e0PsuyC-55" edge="1">
          <mxGeometry relative="1" as="geometry">
            <Array as="points">
              <mxPoint x="578" y="190" />
              <mxPoint x="1022" y="190" />
            </Array>
          </mxGeometry>
        </mxCell>
        <mxCell id="wVEgCq-2I5lU8e0PsuyC-31" value="&lt;font style=&quot;font-size: 22px;&quot;&gt;1/7&lt;/font&gt;" style="edgeLabel;html=1;align=center;verticalAlign=middle;resizable=0;points=[];" parent="wVEgCq-2I5lU8e0PsuyC-30" vertex="1" connectable="0">
          <mxGeometry x="-0.4522" y="-32" relative="1" as="geometry">
            <mxPoint x="10" y="18" as="offset" />
          </mxGeometry>
        </mxCell>
        <mxCell id="wVEgCq-2I5lU8e0PsuyC-32" value="&lt;font style=&quot;font-size: 14px;&quot;&gt;Act17&lt;/font&gt;" style="ellipse;whiteSpace=wrap;html=1;aspect=fixed;" parent="1" vertex="1">
          <mxGeometry x="510" y="290" width="80" height="80" as="geometry" />
        </mxCell>
        <mxCell id="wVEgCq-2I5lU8e0PsuyC-33" style="edgeStyle=orthogonalEdgeStyle;rounded=0;orthogonalLoop=1;jettySize=auto;html=1;exitX=1;exitY=0.5;exitDx=0;exitDy=0;entryX=0;entryY=0.5;entryDx=0;entryDy=0;" parent="1" source="wVEgCq-2I5lU8e0PsuyC-35" target="wVEgCq-2I5lU8e0PsuyC-55" edge="1">
          <mxGeometry relative="1" as="geometry" />
        </mxCell>
        <mxCell id="wVEgCq-2I5lU8e0PsuyC-34" value="&lt;font style=&quot;font-size: 22px;&quot;&gt;1/1&lt;/font&gt;" style="edgeLabel;html=1;align=center;verticalAlign=middle;resizable=0;points=[];" parent="wVEgCq-2I5lU8e0PsuyC-33" vertex="1" connectable="0">
          <mxGeometry x="-0.0018" y="2" relative="1" as="geometry">
            <mxPoint y="-18" as="offset" />
          </mxGeometry>
        </mxCell>
        <mxCell id="wVEgCq-2I5lU8e0PsuyC-35" value="&lt;font style=&quot;font-size: 14px;&quot;&gt;Act12&lt;/font&gt;" style="ellipse;whiteSpace=wrap;html=1;aspect=fixed;" parent="1" vertex="1">
          <mxGeometry x="510" y="80" width="80" height="80" as="geometry" />
        </mxCell>
        <mxCell id="wVEgCq-2I5lU8e0PsuyC-36" style="rounded=0;orthogonalLoop=1;jettySize=auto;html=1;exitX=1;exitY=1;exitDx=0;exitDy=0;entryX=0;entryY=0.5;entryDx=0;entryDy=0;" parent="1" source="wVEgCq-2I5lU8e0PsuyC-40" target="wVEgCq-2I5lU8e0PsuyC-46" edge="1">
          <mxGeometry relative="1" as="geometry" />
        </mxCell>
        <mxCell id="wVEgCq-2I5lU8e0PsuyC-37" value="&lt;font style=&quot;font-size: 22px;&quot;&gt;5/5&lt;/font&gt;" style="edgeLabel;html=1;align=center;verticalAlign=middle;resizable=0;points=[];" parent="wVEgCq-2I5lU8e0PsuyC-36" vertex="1" connectable="0">
          <mxGeometry x="-0.072" relative="1" as="geometry">
            <mxPoint x="-17" y="12" as="offset" />
          </mxGeometry>
        </mxCell>
        <mxCell id="wVEgCq-2I5lU8e0PsuyC-38" style="edgeStyle=orthogonalEdgeStyle;rounded=0;orthogonalLoop=1;jettySize=auto;html=1;exitX=0.5;exitY=0;exitDx=0;exitDy=0;entryX=0;entryY=0.5;entryDx=0;entryDy=0;curved=1;" parent="1" source="wVEgCq-2I5lU8e0PsuyC-40" target="wVEgCq-2I5lU8e0PsuyC-43" edge="1">
          <mxGeometry relative="1" as="geometry" />
        </mxCell>
        <mxCell id="wVEgCq-2I5lU8e0PsuyC-39" value="&lt;font style=&quot;font-size: 22px;&quot;&gt;1/5&lt;/font&gt;" style="edgeLabel;html=1;align=center;verticalAlign=middle;resizable=0;points=[];" parent="wVEgCq-2I5lU8e0PsuyC-38" vertex="1" connectable="0">
          <mxGeometry x="0.1355" y="-6" relative="1" as="geometry">
            <mxPoint x="-12" y="-16" as="offset" />
          </mxGeometry>
        </mxCell>
        <mxCell id="wVEgCq-2I5lU8e0PsuyC-40" value="&lt;font style=&quot;font-size: 14px;&quot;&gt;Act09&lt;/font&gt;" style="ellipse;whiteSpace=wrap;html=1;aspect=fixed;" parent="1" vertex="1">
          <mxGeometry x="660" y="290" width="80" height="80" as="geometry" />
        </mxCell>
        <mxCell id="wVEgCq-2I5lU8e0PsuyC-41" style="edgeStyle=orthogonalEdgeStyle;rounded=0;orthogonalLoop=1;jettySize=auto;html=1;exitX=0.5;exitY=1;exitDx=0;exitDy=0;entryX=1;entryY=0.5;entryDx=0;entryDy=0;curved=1;" parent="1" source="wVEgCq-2I5lU8e0PsuyC-43" target="wVEgCq-2I5lU8e0PsuyC-40" edge="1">
          <mxGeometry relative="1" as="geometry" />
        </mxCell>
        <mxCell id="wVEgCq-2I5lU8e0PsuyC-42" value="&lt;font style=&quot;font-size: 22px;&quot;&gt;1/1&lt;/font&gt;" style="edgeLabel;html=1;align=center;verticalAlign=middle;resizable=0;points=[];" parent="wVEgCq-2I5lU8e0PsuyC-41" vertex="1" connectable="0">
          <mxGeometry x="0.0378" y="-9" relative="1" as="geometry">
            <mxPoint x="34" y="-11" as="offset" />
          </mxGeometry>
        </mxCell>
        <mxCell id="wVEgCq-2I5lU8e0PsuyC-43" value="&lt;font style=&quot;font-size: 14px;&quot;&gt;Act14&lt;/font&gt;" style="ellipse;whiteSpace=wrap;html=1;aspect=fixed;" parent="1" vertex="1">
          <mxGeometry x="770" y="210" width="80" height="80" as="geometry" />
        </mxCell>
        <mxCell id="wVEgCq-2I5lU8e0PsuyC-44" style="edgeStyle=orthogonalEdgeStyle;rounded=0;orthogonalLoop=1;jettySize=auto;html=1;exitX=1;exitY=0.5;exitDx=0;exitDy=0;entryX=0;entryY=0.5;entryDx=0;entryDy=0;" parent="1" source="wVEgCq-2I5lU8e0PsuyC-46" target="wVEgCq-2I5lU8e0PsuyC-49" edge="1">
          <mxGeometry relative="1" as="geometry" />
        </mxCell>
        <mxCell id="wVEgCq-2I5lU8e0PsuyC-45" value="&lt;font style=&quot;font-size: 22px;&quot;&gt;5/5&lt;/font&gt;" style="edgeLabel;html=1;align=center;verticalAlign=middle;resizable=0;points=[];" parent="wVEgCq-2I5lU8e0PsuyC-44" vertex="1" connectable="0">
          <mxGeometry x="-0.0429" y="2" relative="1" as="geometry">
            <mxPoint y="-18" as="offset" />
          </mxGeometry>
        </mxCell>
        <mxCell id="wVEgCq-2I5lU8e0PsuyC-46" value="&lt;font style=&quot;font-size: 14px;&quot;&gt;Act18&lt;/font&gt;" style="ellipse;whiteSpace=wrap;html=1;aspect=fixed;" parent="1" vertex="1">
          <mxGeometry x="790" y="340" width="80" height="80" as="geometry" />
        </mxCell>
        <mxCell id="wVEgCq-2I5lU8e0PsuyC-47" style="rounded=0;orthogonalLoop=1;jettySize=auto;html=1;exitX=1;exitY=1;exitDx=0;exitDy=0;entryX=0;entryY=0;entryDx=0;entryDy=0;" parent="1" source="wVEgCq-2I5lU8e0PsuyC-49" target="wVEgCq-2I5lU8e0PsuyC-54" edge="1">
          <mxGeometry relative="1" as="geometry" />
        </mxCell>
        <mxCell id="wVEgCq-2I5lU8e0PsuyC-48" value="&lt;font style=&quot;font-size: 22px;&quot;&gt;5/5&lt;/font&gt;" style="edgeLabel;html=1;align=center;verticalAlign=middle;resizable=0;points=[];" parent="wVEgCq-2I5lU8e0PsuyC-47" vertex="1" connectable="0">
          <mxGeometry x="-0.0177" relative="1" as="geometry">
            <mxPoint x="-20" y="5" as="offset" />
          </mxGeometry>
        </mxCell>
        <mxCell id="wVEgCq-2I5lU8e0PsuyC-49" value="&lt;font style=&quot;font-size: 14px;&quot;&gt;Act20&lt;/font&gt;" style="ellipse;whiteSpace=wrap;html=1;aspect=fixed;" parent="1" vertex="1">
          <mxGeometry x="910" y="340" width="80" height="80" as="geometry" />
        </mxCell>
        <mxCell id="wVEgCq-2I5lU8e0PsuyC-50" style="edgeStyle=orthogonalEdgeStyle;rounded=0;orthogonalLoop=1;jettySize=auto;html=1;exitX=0.5;exitY=0;exitDx=0;exitDy=0;entryX=0.5;entryY=1;entryDx=0;entryDy=0;" parent="1" source="wVEgCq-2I5lU8e0PsuyC-54" target="wVEgCq-2I5lU8e0PsuyC-55" edge="1">
          <mxGeometry relative="1" as="geometry" />
        </mxCell>
        <mxCell id="wVEgCq-2I5lU8e0PsuyC-51" value="&lt;font style=&quot;font-size: 22px;&quot;&gt;1/5&lt;/font&gt;" style="edgeLabel;html=1;align=center;verticalAlign=middle;resizable=0;points=[];" parent="wVEgCq-2I5lU8e0PsuyC-50" vertex="1" connectable="0">
          <mxGeometry x="-0.092" y="-1" relative="1" as="geometry">
            <mxPoint x="19" y="-8" as="offset" />
          </mxGeometry>
        </mxCell>
        <mxCell id="wVEgCq-2I5lU8e0PsuyC-52" style="rounded=0;orthogonalLoop=1;jettySize=auto;html=1;exitX=0;exitY=0.5;exitDx=0;exitDy=0;entryX=1;entryY=0.5;entryDx=0;entryDy=0;" parent="1" source="wVEgCq-2I5lU8e0PsuyC-54" target="wVEgCq-2I5lU8e0PsuyC-25" edge="1">
          <mxGeometry relative="1" as="geometry" />
        </mxCell>
        <mxCell id="wVEgCq-2I5lU8e0PsuyC-53" value="&lt;font style=&quot;font-size: 22px;&quot;&gt;4/5&lt;/font&gt;" style="edgeLabel;html=1;align=center;verticalAlign=middle;resizable=0;points=[];" parent="wVEgCq-2I5lU8e0PsuyC-52" vertex="1" connectable="0">
          <mxGeometry x="0.0181" y="4" relative="1" as="geometry">
            <mxPoint x="2" y="16" as="offset" />
          </mxGeometry>
        </mxCell>
        <mxCell id="wVEgCq-2I5lU8e0PsuyC-54" value="&lt;font style=&quot;font-size: 14px;&quot;&gt;Act08&lt;/font&gt;" style="ellipse;whiteSpace=wrap;html=1;aspect=fixed;" parent="1" vertex="1">
          <mxGeometry x="1010" y="450" width="80" height="80" as="geometry" />
        </mxCell>
        <mxCell id="wVEgCq-2I5lU8e0PsuyC-55" value="&lt;font style=&quot;font-size: 14px;&quot;&gt;Act13&lt;/font&gt;" style="ellipse;whiteSpace=wrap;html=1;aspect=fixed;fillColor=#fff2cc;strokeColor=#d6b656;" parent="1" vertex="1">
          <mxGeometry x="1010" y="80" width="80" height="80" as="geometry" />
        </mxCell>
      </root>
    </mxGraphModel>
  </diagram>
  <diagram id="Fd-K3Sw42RgQ8bRqRDrd" name="PÃ¡gina-3">
    <mxGraphModel dx="476" dy="259" grid="1" gridSize="10" guides="1" tooltips="1" connect="1" arrows="1" fold="1" page="1" pageScale="1" pageWidth="827" pageHeight="1169" math="0" shadow="0">
      <root>
        <mxCell id="0" />
        <mxCell id="1" parent="0" />
        <mxCell id="oiETH4IH-yA-PwtRtsXP-1" style="edgeStyle=orthogonalEdgeStyle;rounded=0;orthogonalLoop=1;jettySize=auto;html=1;exitX=1;exitY=0.5;exitDx=0;exitDy=0;entryX=0;entryY=0.5;entryDx=0;entryDy=0;" parent="1" source="oiETH4IH-yA-PwtRtsXP-3" target="oiETH4IH-yA-PwtRtsXP-6" edge="1">
          <mxGeometry relative="1" as="geometry" />
        </mxCell>
        <mxCell id="oiETH4IH-yA-PwtRtsXP-2" value="&lt;font style=&quot;font-size: 22px;&quot;&gt;6/6&lt;/font&gt;" style="edgeLabel;html=1;align=center;verticalAlign=middle;resizable=0;points=[];" parent="oiETH4IH-yA-PwtRtsXP-1" vertex="1" connectable="0">
          <mxGeometry x="-0.0286" relative="1" as="geometry">
            <mxPoint y="-20" as="offset" />
          </mxGeometry>
        </mxCell>
        <mxCell id="oiETH4IH-yA-PwtRtsXP-3" value="&lt;font style=&quot;font-size: 14px;&quot;&gt;Act10&lt;/font&gt;" style="ellipse;whiteSpace=wrap;html=1;aspect=fixed;fillColor=#d5e8d4;strokeColor=#82b366;" parent="1" vertex="1">
          <mxGeometry x="90" y="1190" width="80" height="80" as="geometry" />
        </mxCell>
        <mxCell id="oiETH4IH-yA-PwtRtsXP-4" style="edgeStyle=orthogonalEdgeStyle;rounded=0;orthogonalLoop=1;jettySize=auto;html=1;exitX=1;exitY=0.5;exitDx=0;exitDy=0;entryX=0;entryY=0.5;entryDx=0;entryDy=0;" parent="1" source="oiETH4IH-yA-PwtRtsXP-6" target="oiETH4IH-yA-PwtRtsXP-11" edge="1">
          <mxGeometry relative="1" as="geometry" />
        </mxCell>
        <mxCell id="oiETH4IH-yA-PwtRtsXP-5" value="&lt;font style=&quot;font-size: 22px;&quot;&gt;7/7&lt;/font&gt;" style="edgeLabel;html=1;align=center;verticalAlign=middle;resizable=0;points=[];" parent="oiETH4IH-yA-PwtRtsXP-4" vertex="1" connectable="0">
          <mxGeometry x="-0.0298" relative="1" as="geometry">
            <mxPoint y="-20" as="offset" />
          </mxGeometry>
        </mxCell>
        <mxCell id="oiETH4IH-yA-PwtRtsXP-6" value="&lt;font style=&quot;font-size: 14px;&quot;&gt;Act04&lt;/font&gt;" style="ellipse;whiteSpace=wrap;html=1;aspect=fixed;fillColor=#d5e8d4;strokeColor=#82b366;" parent="1" vertex="1">
          <mxGeometry x="230" y="1190" width="80" height="80" as="geometry" />
        </mxCell>
        <mxCell id="oiETH4IH-yA-PwtRtsXP-7" style="edgeStyle=orthogonalEdgeStyle;rounded=0;orthogonalLoop=1;jettySize=auto;html=1;exitX=1;exitY=0.5;exitDx=0;exitDy=0;entryX=0;entryY=0.5;entryDx=0;entryDy=0;" parent="1" source="oiETH4IH-yA-PwtRtsXP-11" target="oiETH4IH-yA-PwtRtsXP-16" edge="1">
          <mxGeometry relative="1" as="geometry" />
        </mxCell>
        <mxCell id="oiETH4IH-yA-PwtRtsXP-8" value="&lt;font style=&quot;font-size: 22px;&quot;&gt;1/7&lt;/font&gt;" style="edgeLabel;html=1;align=center;verticalAlign=middle;resizable=0;points=[];" parent="oiETH4IH-yA-PwtRtsXP-7" vertex="1" connectable="0">
          <mxGeometry x="-0.0361" y="-3" relative="1" as="geometry">
            <mxPoint x="4" y="-23" as="offset" />
          </mxGeometry>
        </mxCell>
        <mxCell id="oiETH4IH-yA-PwtRtsXP-9" style="rounded=0;orthogonalLoop=1;jettySize=auto;html=1;exitX=0.5;exitY=1;exitDx=0;exitDy=0;entryX=0;entryY=0;entryDx=0;entryDy=0;" parent="1" source="oiETH4IH-yA-PwtRtsXP-11" target="oiETH4IH-yA-PwtRtsXP-21" edge="1">
          <mxGeometry relative="1" as="geometry" />
        </mxCell>
        <mxCell id="oiETH4IH-yA-PwtRtsXP-10" value="&lt;font style=&quot;font-size: 22px;&quot;&gt;6/7&lt;/font&gt;" style="edgeLabel;html=1;align=center;verticalAlign=middle;resizable=0;points=[];" parent="oiETH4IH-yA-PwtRtsXP-9" vertex="1" connectable="0">
          <mxGeometry x="-0.1902" y="-1" relative="1" as="geometry">
            <mxPoint x="-19" y="12" as="offset" />
          </mxGeometry>
        </mxCell>
        <mxCell id="oiETH4IH-yA-PwtRtsXP-11" value="&lt;font style=&quot;font-size: 14px;&quot;&gt;Act07&lt;/font&gt;" style="ellipse;whiteSpace=wrap;html=1;aspect=fixed;" parent="1" vertex="1">
          <mxGeometry x="374" y="1190" width="80" height="80" as="geometry" />
        </mxCell>
        <mxCell id="oiETH4IH-yA-PwtRtsXP-12" style="edgeStyle=orthogonalEdgeStyle;rounded=0;orthogonalLoop=1;jettySize=auto;html=1;exitX=1;exitY=0.5;exitDx=0;exitDy=0;entryX=0;entryY=0.5;entryDx=0;entryDy=0;" parent="1" source="oiETH4IH-yA-PwtRtsXP-16" target="oiETH4IH-yA-PwtRtsXP-29" edge="1">
          <mxGeometry relative="1" as="geometry" />
        </mxCell>
        <mxCell id="oiETH4IH-yA-PwtRtsXP-13" value="&lt;font style=&quot;font-size: 22px;&quot;&gt;5/6&lt;/font&gt;" style="edgeLabel;html=1;align=center;verticalAlign=middle;resizable=0;points=[];" parent="oiETH4IH-yA-PwtRtsXP-12" vertex="1" connectable="0">
          <mxGeometry x="-0.0721" y="1" relative="1" as="geometry">
            <mxPoint y="-19" as="offset" />
          </mxGeometry>
        </mxCell>
        <mxCell id="oiETH4IH-yA-PwtRtsXP-14" style="rounded=0;orthogonalLoop=1;jettySize=auto;html=1;exitX=1;exitY=0;exitDx=0;exitDy=0;entryX=0;entryY=1;entryDx=0;entryDy=0;" parent="1" source="oiETH4IH-yA-PwtRtsXP-16" target="oiETH4IH-yA-PwtRtsXP-32" edge="1">
          <mxGeometry relative="1" as="geometry" />
        </mxCell>
        <mxCell id="oiETH4IH-yA-PwtRtsXP-15" value="&lt;font style=&quot;font-size: 22px;&quot;&gt;1/6&lt;/font&gt;" style="edgeLabel;html=1;align=center;verticalAlign=middle;resizable=0;points=[];" parent="oiETH4IH-yA-PwtRtsXP-14" vertex="1" connectable="0">
          <mxGeometry x="-0.0658" y="1" relative="1" as="geometry">
            <mxPoint x="-11" y="-17" as="offset" />
          </mxGeometry>
        </mxCell>
        <mxCell id="oiETH4IH-yA-PwtRtsXP-16" value="&lt;font style=&quot;font-size: 14px;&quot;&gt;Act15&lt;/font&gt;" style="ellipse;whiteSpace=wrap;html=1;aspect=fixed;" parent="1" vertex="1">
          <mxGeometry x="520" y="1190" width="80" height="80" as="geometry" />
        </mxCell>
        <mxCell id="oiETH4IH-yA-PwtRtsXP-17" style="rounded=0;orthogonalLoop=1;jettySize=auto;html=1;exitX=1;exitY=0;exitDx=0;exitDy=0;entryX=0.5;entryY=1;entryDx=0;entryDy=0;" parent="1" source="oiETH4IH-yA-PwtRtsXP-21" target="oiETH4IH-yA-PwtRtsXP-16" edge="1">
          <mxGeometry relative="1" as="geometry" />
        </mxCell>
        <mxCell id="oiETH4IH-yA-PwtRtsXP-18" value="&lt;font style=&quot;font-size: 22px;&quot;&gt;5/6&lt;/font&gt;" style="edgeLabel;html=1;align=center;verticalAlign=middle;resizable=0;points=[];" parent="oiETH4IH-yA-PwtRtsXP-17" vertex="1" connectable="0">
          <mxGeometry x="-0.065" y="1" relative="1" as="geometry">
            <mxPoint x="-17" y="-11" as="offset" />
          </mxGeometry>
        </mxCell>
        <mxCell id="oiETH4IH-yA-PwtRtsXP-19" style="edgeStyle=orthogonalEdgeStyle;rounded=0;orthogonalLoop=1;jettySize=auto;html=1;exitX=1;exitY=0.5;exitDx=0;exitDy=0;entryX=0;entryY=0.5;entryDx=0;entryDy=0;" parent="1" source="oiETH4IH-yA-PwtRtsXP-21" target="oiETH4IH-yA-PwtRtsXP-24" edge="1">
          <mxGeometry relative="1" as="geometry" />
        </mxCell>
        <mxCell id="oiETH4IH-yA-PwtRtsXP-20" value="&lt;font style=&quot;font-size: 22px;&quot;&gt;1/6&lt;/font&gt;" style="edgeLabel;html=1;align=center;verticalAlign=middle;resizable=0;points=[];" parent="oiETH4IH-yA-PwtRtsXP-19" vertex="1" connectable="0">
          <mxGeometry x="-0.0603" y="1" relative="1" as="geometry">
            <mxPoint x="2" y="21" as="offset" />
          </mxGeometry>
        </mxCell>
        <mxCell id="oiETH4IH-yA-PwtRtsXP-21" value="&lt;font style=&quot;font-size: 14px;&quot;&gt;Act01&lt;/font&gt;" style="ellipse;whiteSpace=wrap;html=1;aspect=fixed;" parent="1" vertex="1">
          <mxGeometry x="450" y="1300" width="80" height="80" as="geometry" />
        </mxCell>
        <mxCell id="oiETH4IH-yA-PwtRtsXP-22" style="rounded=0;orthogonalLoop=1;jettySize=auto;html=1;exitX=1;exitY=0;exitDx=0;exitDy=0;entryX=0;entryY=1;entryDx=0;entryDy=0;" parent="1" source="oiETH4IH-yA-PwtRtsXP-24" target="oiETH4IH-yA-PwtRtsXP-29" edge="1">
          <mxGeometry relative="1" as="geometry" />
        </mxCell>
        <mxCell id="oiETH4IH-yA-PwtRtsXP-23" value="&lt;font style=&quot;font-size: 22px;&quot;&gt;1/1&lt;/font&gt;" style="edgeLabel;html=1;align=center;verticalAlign=middle;resizable=0;points=[];" parent="oiETH4IH-yA-PwtRtsXP-22" vertex="1" connectable="0">
          <mxGeometry x="-0.0782" relative="1" as="geometry">
            <mxPoint x="-19" y="-7" as="offset" />
          </mxGeometry>
        </mxCell>
        <mxCell id="oiETH4IH-yA-PwtRtsXP-24" value="&lt;font style=&quot;font-size: 14px;&quot;&gt;Act19&lt;/font&gt;" style="ellipse;whiteSpace=wrap;html=1;aspect=fixed;" parent="1" vertex="1">
          <mxGeometry x="590" y="1300" width="80" height="80" as="geometry" />
        </mxCell>
        <mxCell id="oiETH4IH-yA-PwtRtsXP-25" style="rounded=0;orthogonalLoop=1;jettySize=auto;html=1;exitX=0.5;exitY=1;exitDx=0;exitDy=0;entryX=0;entryY=0;entryDx=0;entryDy=0;" parent="1" source="oiETH4IH-yA-PwtRtsXP-29" target="oiETH4IH-yA-PwtRtsXP-35" edge="1">
          <mxGeometry relative="1" as="geometry" />
        </mxCell>
        <mxCell id="oiETH4IH-yA-PwtRtsXP-26" value="&lt;font style=&quot;font-size: 22px;&quot;&gt;1/6&lt;/font&gt;" style="edgeLabel;html=1;align=center;verticalAlign=middle;resizable=0;points=[];" parent="oiETH4IH-yA-PwtRtsXP-25" vertex="1" connectable="0">
          <mxGeometry x="-0.2209" y="-1" relative="1" as="geometry">
            <mxPoint x="-20" y="13" as="offset" />
          </mxGeometry>
        </mxCell>
        <mxCell id="oiETH4IH-yA-PwtRtsXP-27" style="edgeStyle=orthogonalEdgeStyle;rounded=0;orthogonalLoop=1;jettySize=auto;html=1;exitX=1;exitY=0.5;exitDx=0;exitDy=0;entryX=0;entryY=0.5;entryDx=0;entryDy=0;" parent="1" source="oiETH4IH-yA-PwtRtsXP-29" target="oiETH4IH-yA-PwtRtsXP-38" edge="1">
          <mxGeometry relative="1" as="geometry" />
        </mxCell>
        <mxCell id="oiETH4IH-yA-PwtRtsXP-28" value="&lt;font style=&quot;font-size: 22px;&quot;&gt;5/6&lt;/font&gt;" style="edgeLabel;html=1;align=center;verticalAlign=middle;resizable=0;points=[];" parent="oiETH4IH-yA-PwtRtsXP-27" vertex="1" connectable="0">
          <mxGeometry x="-0.1048" y="1" relative="1" as="geometry">
            <mxPoint x="4" y="-19" as="offset" />
          </mxGeometry>
        </mxCell>
        <mxCell id="oiETH4IH-yA-PwtRtsXP-29" value="&lt;font style=&quot;font-size: 14px;&quot;&gt;Act17&lt;/font&gt;" style="ellipse;whiteSpace=wrap;html=1;aspect=fixed;" parent="1" vertex="1">
          <mxGeometry x="670" y="1190" width="80" height="80" as="geometry" />
        </mxCell>
        <mxCell id="oiETH4IH-yA-PwtRtsXP-30" style="rounded=0;orthogonalLoop=1;jettySize=auto;html=1;exitX=1;exitY=1;exitDx=0;exitDy=0;entryX=0;entryY=0;entryDx=0;entryDy=0;" parent="1" source="oiETH4IH-yA-PwtRtsXP-32" target="oiETH4IH-yA-PwtRtsXP-38" edge="1">
          <mxGeometry relative="1" as="geometry" />
        </mxCell>
        <mxCell id="oiETH4IH-yA-PwtRtsXP-31" value="&lt;font style=&quot;font-size: 22px;&quot;&gt;1/1&lt;/font&gt;" style="edgeLabel;html=1;align=center;verticalAlign=middle;resizable=0;points=[];" parent="oiETH4IH-yA-PwtRtsXP-30" vertex="1" connectable="0">
          <mxGeometry x="-0.0642" y="2" relative="1" as="geometry">
            <mxPoint x="22" y="-11" as="offset" />
          </mxGeometry>
        </mxCell>
        <mxCell id="oiETH4IH-yA-PwtRtsXP-32" value="&lt;font style=&quot;font-size: 14px;&quot;&gt;Act11&lt;/font&gt;" style="ellipse;whiteSpace=wrap;html=1;aspect=fixed;" parent="1" vertex="1">
          <mxGeometry x="670" y="1060" width="80" height="80" as="geometry" />
        </mxCell>
        <mxCell id="oiETH4IH-yA-PwtRtsXP-33" style="rounded=0;orthogonalLoop=1;jettySize=auto;html=1;exitX=1;exitY=0;exitDx=0;exitDy=0;entryX=0.5;entryY=1;entryDx=0;entryDy=0;" parent="1" source="oiETH4IH-yA-PwtRtsXP-35" target="oiETH4IH-yA-PwtRtsXP-38" edge="1">
          <mxGeometry relative="1" as="geometry" />
        </mxCell>
        <mxCell id="oiETH4IH-yA-PwtRtsXP-34" value="&lt;font style=&quot;font-size: 22px;&quot;&gt;1/6&lt;/font&gt;" style="edgeLabel;html=1;align=center;verticalAlign=middle;resizable=0;points=[];" parent="oiETH4IH-yA-PwtRtsXP-33" vertex="1" connectable="0">
          <mxGeometry x="-0.0208" relative="1" as="geometry">
            <mxPoint x="26" y="9" as="offset" />
          </mxGeometry>
        </mxCell>
        <mxCell id="oiETH4IH-yA-PwtRtsXP-35" value="Act18" style="ellipse;whiteSpace=wrap;html=1;aspect=fixed;" parent="1" vertex="1">
          <mxGeometry x="750" y="1300" width="80" height="80" as="geometry" />
        </mxCell>
        <mxCell id="oiETH4IH-yA-PwtRtsXP-36" style="edgeStyle=orthogonalEdgeStyle;rounded=0;orthogonalLoop=1;jettySize=auto;html=1;exitX=1;exitY=0.5;exitDx=0;exitDy=0;entryX=0;entryY=0.5;entryDx=0;entryDy=0;" parent="1" source="oiETH4IH-yA-PwtRtsXP-38" target="oiETH4IH-yA-PwtRtsXP-39" edge="1">
          <mxGeometry relative="1" as="geometry" />
        </mxCell>
        <mxCell id="oiETH4IH-yA-PwtRtsXP-37" value="&lt;font style=&quot;font-size: 22px;&quot;&gt;7/7&lt;/font&gt;" style="edgeLabel;html=1;align=center;verticalAlign=middle;resizable=0;points=[];" parent="oiETH4IH-yA-PwtRtsXP-36" vertex="1" connectable="0">
          <mxGeometry x="-0.0571" y="2" relative="1" as="geometry">
            <mxPoint y="-18" as="offset" />
          </mxGeometry>
        </mxCell>
        <mxCell id="oiETH4IH-yA-PwtRtsXP-38" value="&lt;font style=&quot;font-size: 14px;&quot;&gt;Act22&lt;/font&gt;" style="ellipse;whiteSpace=wrap;html=1;aspect=fixed;" parent="1" vertex="1">
          <mxGeometry x="830" y="1190" width="80" height="80" as="geometry" />
        </mxCell>
        <mxCell id="oiETH4IH-yA-PwtRtsXP-39" value="&lt;font style=&quot;font-size: 14px;&quot;&gt;Act23&lt;/font&gt;" style="ellipse;whiteSpace=wrap;html=1;aspect=fixed;fillColor=#fff2cc;strokeColor=#d6b656;" parent="1" vertex="1">
          <mxGeometry x="990" y="1190" width="80" height="80" as="geometry" />
        </mxCell>
      </root>
    </mxGraphModel>
  </diagram>
</mxfile>
